<svg width="745" height="571" viewBox="0 0 745 571" fill="none" xmlns="http://www.w3.org/2000/svg">
<g clip-path="url(#clip0_314_100)">
<path d="M446.102 133.806C390.914 131.068 335.021 130.343 281.88 113.047C256.02 104.634 231.105 92.5121 209.212 76.2589C187.685 60.2763 173.513 36.5811 150.581 23.4082C122.579 7.33008 90.014 8.31706 62.987 25.9234C-19.79 79.8566 -4.36499 210.583 22.083 289.556C67.875 426.276 213.299 509.627 344.185 546.973C441.698 574.791 550.835 569.745 632.89 505.106C702.154 450.544 735.632 364.232 712.954 277.712C693.259 202.567 618.441 161.696 547.582 145.562C514.691 138.072 480.46 135.509 446.102 133.806Z" fill="#661FFE"/>
<path d="M461.172 126.726C454.932 126.417 448.682 126.132 442.426 125.847C391.389 123.522 340.003 121.18 290.883 105.191C264.044 96.458 238.177 83.8728 215.443 66.9928C205.61 59.6914 197.252 50.8425 188.986 42.0897C187.84 40.8763 186.695 39.6648 185.549 38.4595C176.121 28.5449 166.553 19.0417 154.741 12.2558C125.89 -4.31185 92.3493 -3.29557 64.5023 14.8477C21.8023 42.6723 4.39025 90.3274 1.09625 141.331C-2.19875 192.332 8.63121 246.593 22.3192 287.472C69.6882 428.915 220.163 515.223 355.733 553.91C456.677 582.711 569.576 577.464 654.431 510.612C726.058 454.18 760.658 364.933 737.215 275.484L737.699 275.357L737.215 275.484C716.881 197.887 639.598 155.603 566.236 138.897C532.201 131.146 496.769 128.491 461.172 126.726Z" stroke="#661FFE"/>
</g>
<defs>
<clipPath id="clip0_314_100">
<rect width="745" height="571" fill="white" transform="matrix(-1 0 0 1 745 0)"/>
</clipPath>
</defs>
</svg>
